


<svg id="wave" style="transform:rotate(0deg); transition: 0.3s" viewBox="0 0 1440 490" version="1.1" xmlns="http://www.w3.org/2000/svg"><defs><linearGradient id="sw-gradient-0" x1="0" x2="0" y1="1" y2="0"><stop stop-color="rgba(234, 88, 12, 1)" offset="0%"></stop><stop stop-color="rgba(214, 211, 209, 1)" offset="100%"></stop></linearGradient></defs><path style="transform:translate(0, 0px); opacity:1" fill="url(#sw-gradient-0)" d="M0,98L240,114.3C480,131,960,163,1440,171.5C1920,180,2400,163,2880,204.2C3360,245,3840,343,4320,367.5C4800,392,5280,343,5760,326.7C6240,310,6720,327,7200,334.8C7680,343,8160,343,8640,302.2C9120,261,9600,180,10080,187.8C10560,196,11040,294,11520,294C12000,294,12480,196,12960,130.7C13440,65,13920,33,14400,57.2C14880,82,15360,163,15840,196C16320,229,16800,212,17280,179.7C17760,147,18240,98,18720,122.5C19200,147,19680,245,20160,269.5C20640,294,21120,245,21600,253.2C22080,261,22560,327,23040,318.5C23520,310,24000,229,24480,196C24960,163,25440,180,25920,228.7C26400,278,26880,359,27360,375.7C27840,392,28320,343,28800,277.7C29280,212,29760,131,30240,155.2C30720,180,31200,310,31680,367.5C32160,425,32640,408,33120,367.5C33600,327,34080,261,34320,228.7L34560,196L34560,490L34320,490C34080,490,33600,490,33120,490C32640,490,32160,490,31680,490C31200,490,30720,490,30240,490C29760,490,29280,490,28800,490C28320,490,27840,490,27360,490C26880,490,26400,490,25920,490C25440,490,24960,490,24480,490C24000,490,23520,490,23040,490C22560,490,22080,490,21600,490C21120,490,20640,490,20160,490C19680,490,19200,490,18720,490C18240,490,17760,490,17280,490C16800,490,16320,490,15840,490C15360,490,14880,490,14400,490C13920,490,13440,490,12960,490C12480,490,12000,490,11520,490C11040,490,10560,490,10080,490C9600,490,9120,490,8640,490C8160,490,7680,490,7200,490C6720,490,6240,490,5760,490C5280,490,4800,490,4320,490C3840,490,3360,490,2880,490C2400,490,1920,490,1440,490C960,490,480,490,240,490L0,490Z"></path><defs><linearGradient id="sw-gradient-1" x1="0" x2="0" y1="1" y2="0"><stop stop-color="rgba(251, 191, 36, 1)" offset="0%"></stop><stop stop-color="rgba(251, 191, 36, 1)" offset="100%"></stop></linearGradient></defs><path style="transform:translate(0, 50px); opacity:0.9" fill="url(#sw-gradient-1)" d="M0,294L240,318.5C480,343,960,392,1440,367.5C1920,343,2400,245,2880,196C3360,147,3840,147,4320,187.8C4800,229,5280,310,5760,359.3C6240,408,6720,425,7200,375.7C7680,327,8160,212,8640,155.2C9120,98,9600,98,10080,98C10560,98,11040,98,11520,147C12000,196,12480,294,12960,285.8C13440,278,13920,163,14400,114.3C14880,65,15360,82,15840,106.2C16320,131,16800,163,17280,179.7C17760,196,18240,196,18720,179.7C19200,163,19680,131,20160,98C20640,65,21120,33,21600,16.3C22080,0,22560,0,23040,65.3C23520,131,24000,261,24480,326.7C24960,392,25440,392,25920,334.8C26400,278,26880,163,27360,163.3C27840,163,28320,278,28800,310.3C29280,343,29760,294,30240,285.8C30720,278,31200,310,31680,343C32160,376,32640,408,33120,359.3C33600,310,34080,180,34320,114.3L34560,49L34560,490L34320,490C34080,490,33600,490,33120,490C32640,490,32160,490,31680,490C31200,490,30720,490,30240,490C29760,490,29280,490,28800,490C28320,490,27840,490,27360,490C26880,490,26400,490,25920,490C25440,490,24960,490,24480,490C24000,490,23520,490,23040,490C22560,490,22080,490,21600,490C21120,490,20640,490,20160,490C19680,490,19200,490,18720,490C18240,490,17760,490,17280,490C16800,490,16320,490,15840,490C15360,490,14880,490,14400,490C13920,490,13440,490,12960,490C12480,490,12000,490,11520,490C11040,490,10560,490,10080,490C9600,490,9120,490,8640,490C8160,490,7680,490,7200,490C6720,490,6240,490,5760,490C5280,490,4800,490,4320,490C3840,490,3360,490,2880,490C2400,490,1920,490,1440,490C960,490,480,490,240,490L0,490Z"></path></svg>